<svg version="1.2" xmlns="http://www.w3.org/2000/svg" viewBox="0 0 1542 1002" width="1542" height="1002">
	<title>logo-bdc-new-svg</title>
	<style>
		.s0 { fill: #ff9c6c } 
		.s1 { fill: #ff5a0a } 
	</style>
	<path id="Layer" class="s0" d="m232.8 281.1v-252l246.1 190.5c85.2 66.8 101.3 164.1 99.3 161.7-55.4-69-129.5-99.2-180.5-100.1z"/>
	<path id="Layer" class="s1" d="m711.7 335.5h184.1v666.5h-184.1z"/>
	<path id="Layer" class="s1" d="m1034.5 20.8h184.1v981.2h-184.1z"/>
	<path id="Layer" class="s1" d="m1357.1 20.8h184.1v981.2h-184.1z"/>
	<path id="Layer" fill-rule="evenodd" class="s1" d="m383.4 335.7c107.8 0 195.2 91.8 195.2 205v256.1c0 113.3-87.4 205.1-195.2 205.1h-383.4v-980.7h183.2v314.5zm10.6 226.9c0-30-25.6-54.1-54.9-54.1h-157.1v317.3h157.1c29.1 0 54.9-24.4 54.9-54.1z"/>
	<path id="Layer" class="s1" d="m802.6 240.7c-66.5 0-120.3-53.8-120.3-120.4 0-66.5 53.8-120.3 120.3-120.3 66.5 0 120.3 53.8 120.3 120.3 0 66.6-53.8 120.4-120.3 120.4z"/>
</svg>