<?xml version="1.0" encoding="utf-8"?>
<!-- Generator: Adobe Illustrator 22.1.0, SVG Export Plug-In . SVG Version: 6.00 Build 0)  -->
<svg version="1.1" id="Layer_1" xmlns="http://www.w3.org/2000/svg" xmlns:xlink="http://www.w3.org/1999/xlink" x="0px" y="0px"
	 viewBox="0 0 100 100" enable-background="new 0 0 100 100" xml:space="preserve">
<g>
	<g>
		<rect x="7.4" y="71.2" fill="#4ABEA7" width="21.3" height="21.3"/>
		<polygon fill="#4ABEA7" points="50,49.9 50,28.6 7.4,28.6 7.4,49.9 28.7,49.9 28.7,71.2 92.6,71.2 92.6,49.9 		"/>
		<rect x="50" y="7.3" fill="#4ABEA7" width="42.6" height="21.3"/>
	</g>
	<g>
		<path fill="#0F2043" d="M74.7,84c-2.4,0-4.2,2-4.2,4.4s1.9,4.4,4.2,4.4s4.2-2,4.2-4.4S77.1,84,74.7,84z M74.7,90.5
			c-1.1,0-2.1-1-2.1-2.2c0-1.2,1-2.2,2.1-2.2c1.1,0,2.1,1,2.1,2.2C76.8,89.5,75.8,90.5,74.7,90.5z"/>
		<path fill="#0F2043" d="M53.2,84.1l-0.2,1c0,0-0.6-1.1-2.3-1.1c-2.2,0-4,1.5-4,4.3c0,2.6,2,4.4,3.8,4.4c1.7,0,2.5-1.5,2.5-1.5
			l0.2,1.2h1.9v-8.4H53.2z M50.9,90.5c-1.2,0-2.1-1-2.1-2.2c0-1.2,0.9-2.2,2.1-2.2c1.2,0,2.1,1,2.1,2.2C53,89.5,52.1,90.5,50.9,90.5
			z"/>
		<path fill="#0F2043" d="M58.7,89.8v-3.6h2.1v-2.1h-2.1V82l-2.1,0.6c0,0,0,6.8,0,7.2c0,0.6,0,2.9,2.5,2.9c1.2,0,1.7-0.4,1.7-0.4
			v-1.8C60.8,90.5,58.7,91.4,58.7,89.8z"/>
		<path fill="#0F2043" d="M89.8,84c-1.9,0-2.7,1.4-2.7,1.4S86.6,84,84.7,84c-1.3,0-2.3,0.6-2.6,1.1l-0.2-1H80v8.4h2.1v-4.2
			c0-1.1,0.4-2.2,1.7-2.2c1.1,0,1.5,0.6,1.5,1.7v4.7h2.1v-4.7c0-0.6,0.3-1.7,1.6-1.7s1.5,0.9,1.5,1.6v4.7h2.1v-5.4
			C92.6,86.3,92.3,84,89.8,84z"/>
		<polygon fill="#0F2043" points="39.3,79.9 39.3,92.5 41.6,92.5 41.6,87.3 45.7,87.3 45.7,85.2 41.6,85.2 41.6,82 47.8,82 
			47.8,79.9 		"/>
		<path fill="#0F2043" d="M66.6,84c-1.4,0-2.1,0.8-2.4,1.1v-5.2l-2.1,0.6v12.1h2.1v-4.8c0-0.6,0.2-1.6,1.5-1.6
			c1.3,0,1.6,1.1,1.6,1.8v4.6h2.1v-4.9C69.4,85.6,68.3,84,66.6,84z"/>
	</g>
</g>
</svg>
